<svg width="32" height="32" viewBox="0 0 32 32" fill="none" xmlns="http://www.w3.org/2000/svg">
<path fill-rule="evenodd" clip-rule="evenodd" d="M11.4286 5.33325H20.5714C22.2546 5.33325 23.619 6.69772 23.619 8.38087V23.619C23.619 25.3021 22.2546 26.6666 20.5714 26.6666H11.4286C9.74542 26.6666 8.38095 25.3021 8.38095 23.619V8.38087C8.38095 6.69772 9.74542 5.33325 11.4286 5.33325ZM23.619 9.14278H25.1429C26.826 9.14278 28.1905 10.5072 28.1905 12.1904V19.8094C28.1905 21.4926 26.826 22.8571 25.1429 22.8571H23.619V9.14278Z" stroke="#FF9F00" stroke-width="2" stroke-linecap="round" stroke-linejoin="round"/>
<path fill-rule="evenodd" clip-rule="evenodd" d="M8.38095 9.14282H6.85714C5.17399 9.14282 3.80952 10.5073 3.80952 12.1904V19.8095C3.80952 21.4926 5.17399 22.8571 6.85714 22.8571H8.38095V9.14282Z" stroke="#FF9F00" stroke-width="2" stroke-linecap="round" stroke-linejoin="round"/>
</svg>
