<svg width="28" height="28" viewBox="0 0 28 28" fill="none" xmlns="http://www.w3.org/2000/svg">
<path d="M10.8145 26.8519L13.0667 16.3332H6.55293C6.37692 16.3333 6.20437 16.2844 6.05444 16.1923C5.90452 16.1001 5.7831 15.9681 5.7037 15.811C5.62429 15.6539 5.59 15.4779 5.60465 15.3025C5.6193 15.1271 5.6823 14.9592 5.78666 14.8175L16.1854 0.699911C16.261 0.595594 16.3702 0.52053 16.4947 0.487372C16.6192 0.454215 16.7513 0.464993 16.8688 0.517888C16.9863 0.570784 17.0819 0.662562 17.1396 0.777752C17.1973 0.892942 17.2135 1.0245 17.1855 1.15024L14.9333 11.6666H21.4471C21.6231 11.6666 21.7956 11.7154 21.9456 11.8076C22.0955 11.8998 22.2169 12.0317 22.2963 12.1888C22.3757 12.3459 22.41 12.5219 22.3953 12.6973C22.3807 12.8727 22.3177 13.0406 22.2133 13.1823L11.8146 27.3022C11.739 27.4066 11.6298 27.4816 11.5053 27.5148C11.3808 27.5479 11.2487 27.5372 11.1312 27.4843C11.0137 27.4314 10.9181 27.3396 10.8604 27.2244C10.8027 27.1092 10.7865 26.9777 10.8145 26.8519Z" fill="#FF9F00"/>
<path d="M13.2337 7.9798L8.3104 14.7418C8.25291 14.8211 8.17206 14.8804 8.07917 14.9114C7.98628 14.9425 7.88601 14.9437 7.7924 14.9149C7.74337 14.8999 7.6975 14.876 7.65707 14.8445C7.55793 14.7706 7.49166 14.6609 7.47247 14.5387C7.45328 14.4166 7.48269 14.2918 7.5544 14.1911L12.4777 7.4338C12.5522 7.33911 12.6604 7.27689 12.7797 7.26015C12.899 7.2434 13.0201 7.27344 13.1178 7.34397C13.2154 7.4145 13.282 7.52005 13.3036 7.63856C13.3253 7.75707 13.3002 7.87934 13.2337 7.9798Z" fill="#FFD68D"/>
</svg>
