<svg width="24" height="24" viewBox="0 0 24 24" fill="none" xmlns="http://www.w3.org/2000/svg">
<path fill-rule="evenodd" clip-rule="evenodd" d="M20.8474 3.11115C20.8027 3.02674 20.7338 2.95756 20.6496 2.91243C18.6471 1.84683 6.66724 5.56011 3.56836 7.34763C2.761 7.81419 2.40004 8.36139 2.49988 8.97099C2.785 10.7393 7.54948 12.0795 10.1348 12.6795L14.9895 7.82571C15.0559 7.75698 15.1354 7.70216 15.2233 7.66447C15.3111 7.62678 15.4056 7.60696 15.5012 7.60617C15.5968 7.60539 15.6916 7.62365 15.7801 7.6599C15.8686 7.69614 15.9489 7.74964 16.0165 7.81727C16.0841 7.88491 16.1375 7.96532 16.1736 8.05382C16.2098 8.14233 16.228 8.23714 16.2271 8.33274C16.2262 8.42834 16.2063 8.52281 16.1685 8.61064C16.1308 8.69846 16.0759 8.77789 16.0071 8.84427L11.1063 13.7441C11.7207 16.3563 13.0474 20.9787 14.7879 21.259C14.8532 21.2696 14.9184 21.2753 14.9828 21.2753C15.5146 21.2753 15.9946 20.9105 16.4103 20.1905C18.1978 17.0945 21.914 5.11659 20.8474 3.11211V3.11115Z" fill="#FFFFFF"/>
</svg>
