<svg width="382" height="85" viewBox="0 0 382 85" fill="none" xmlns="http://www.w3.org/2000/svg">
<path d="M382 61C382 74.2548 371.255 85 358 85H24.0001C10.7452 85 6.10352e-05 74.2548 6.10352e-05 61V34.3785C6.10352e-05 21.8646 9.61526 11.4509 22.0895 10.4547L140.82 0.972705C147.384 0.448498 153 5.63388 153 12.2188V12.2188C153 34.8106 170.237 53.125 191.5 53.125C212.763 53.125 230 34.8106 230 12.2188V12.2188C230 5.63499 235.617 0.45152 242.179 0.979064L359.923 10.4441C372.392 11.4464 382 21.8578 382 34.3669L382 61Z" fill="white"/>
</svg>
