<svg width="32" height="32" viewBox="0 0 32 32" fill="none" xmlns="http://www.w3.org/2000/svg">
<path d="M26 16.6667C27.0653 16.6667 27.9967 17.5333 28 18.6667V26C28 27.0653 27.144 28 26 28H18.6667C18.137 27.9975 17.6297 27.786 17.2552 27.4115C16.8806 27.037 16.6691 26.5297 16.6667 26V18.6667C16.6667 17.6013 17.5253 16.6667 18.6667 16.6667H26ZM13.3333 16.6667C14.3987 16.6667 15.33 17.5333 15.3333 18.6667V26C15.3333 27.0653 14.4773 28 13.3333 28H6C5.47032 27.9975 4.96304 27.786 4.5885 27.4115C4.21396 27.037 4.00245 26.5297 4 26V18.6667C4 17.6013 4.85867 16.6667 6 16.6667H13.3333ZM26 18H18.6667C18.3247 18 18 18.2773 18 18.6667V26C18 26.342 18.2687 26.6667 18.6667 26.6667H26C26.342 26.6667 26.6667 26.398 26.6667 26V18.6667C26.6676 18.5789 26.6509 18.4918 26.6177 18.4105C26.5845 18.3292 26.5355 18.2554 26.4734 18.1933C26.4113 18.1312 26.3375 18.0821 26.2562 18.0489C26.1749 18.0157 26.0878 17.9991 26 18ZM13.3333 18H6C5.658 18 5.33333 18.2773 5.33333 18.6667V26C5.33333 26.342 5.602 26.6667 6 26.6667H13.3333C13.6753 26.6667 14 26.398 14 26V18.6667C14.0009 18.5789 13.9843 18.4918 13.9511 18.4105C13.9179 18.3292 13.8688 18.2554 13.8067 18.1933C13.7446 18.1312 13.6708 18.0821 13.5895 18.0489C13.5082 18.0157 13.4211 17.9991 13.3333 18ZM26 4C27.0653 4 27.9967 4.86667 28 6V13.3333C28 14.3987 27.144 15.3333 26 15.3333H18.6667C18.137 15.3309 17.6297 15.1194 17.2552 14.7448C16.8806 14.3703 16.6691 13.863 16.6667 13.3333V6C16.6667 4.93467 17.5253 4 18.6667 4H26ZM13.3333 4C14.3987 4 15.33 4.86667 15.3333 6V13.3333C15.3333 14.3987 14.4773 15.3333 13.3333 15.3333H6C5.47032 15.3309 4.96304 15.1194 4.5885 14.7448C4.21396 14.3703 4.00245 13.863 4 13.3333V6C4 4.93467 4.85867 4 6 4H13.3333ZM26 5.33333H18.6667C18.3247 5.33333 18 5.61067 18 6V13.3333C18 13.6753 18.2687 14 18.6667 14H26C26.342 14 26.6667 13.7313 26.6667 13.3333V6C26.6676 5.9122 26.6509 5.82511 26.6177 5.74383C26.5845 5.66254 26.5355 5.58869 26.4734 5.52661C26.4113 5.46452 26.3375 5.41545 26.2562 5.38226C26.1749 5.34908 26.0878 5.33244 26 5.33333ZM13.3333 5.33333H6C5.658 5.33333 5.33333 5.61067 5.33333 6V13.3333C5.33333 13.6753 5.602 14 6 14H13.3333C13.6753 14 14 13.7313 14 13.3333V6C14.0009 5.9122 13.9843 5.82511 13.9511 5.74383C13.9179 5.66254 13.8688 5.58869 13.8067 5.52661C13.7446 5.46452 13.6708 5.41545 13.5895 5.38226C13.5082 5.34908 13.4211 5.33244 13.3333 5.33333Z" fill="#FF9F00" stroke="#FF9F00" stroke-width="0.5"/>
</svg>
