<svg width="20" height="21" viewBox="0 0 20 21" fill="none" xmlns="http://www.w3.org/2000/svg">
<g clip-path="url(#clip0_2326_106)">
<path d="M19.805 10.7304C19.805 10.0506 19.7499 9.36714 19.6323 8.69839H10.2V12.5492H15.6014C15.3773 13.7912 14.6571 14.8898 13.6025 15.588V18.0866H16.825C18.7173 16.3449 19.805 13.7728 19.805 10.7304Z" fill="#4285F4"/>
<path d="M10.1999 20.5007C12.897 20.5007 15.1714 19.6151 16.8286 18.0866L13.6061 15.5879C12.7096 16.1979 11.5521 16.5433 10.2036 16.5433C7.59474 16.5433 5.38272 14.7832 4.58904 12.4169H1.26367V14.9927C2.96127 18.3695 6.41892 20.5007 10.1999 20.5007Z" fill="#34A853"/>
<path d="M4.5854 12.4169C4.16651 11.1749 4.16651 9.83008 4.5854 8.58811V6.01233H1.2637C-0.154633 8.83798 -0.154633 12.167 1.2637 14.9927L4.5854 12.4169Z" fill="#FBBC04"/>
<path d="M10.1999 4.45805C11.6256 4.436 13.0035 4.97247 14.036 5.95722L16.8911 3.10218C15.0833 1.40459 12.6838 0.471278 10.1999 0.500674C6.41892 0.500674 2.96126 2.63185 1.26367 6.01234L4.58537 8.58813C5.37537 6.21811 7.59106 4.45805 10.1999 4.45805Z" fill="#EA4335"/>
</g>
<defs>
<clipPath id="clip0_2326_106">
<rect width="20" height="20" fill="white" transform="translate(0 0.5)"/>
</clipPath>
</defs>
</svg>
