<svg width="48" height="48" viewBox="0 0 48 48" fill="none" xmlns="http://www.w3.org/2000/svg">
<rect width="48" height="48" rx="24" fill="#FF9F00"/>
<path d="M24 26.3335C23.0278 26.3335 22.2014 25.9932 21.5208 25.3127C20.8403 24.6321 20.5 23.8057 20.5 22.8335V15.8335C20.5 14.8613 20.8403 14.0349 21.5208 13.3543C22.2014 12.6738 23.0278 12.3335 24 12.3335C24.9722 12.3335 25.7986 12.6738 26.4792 13.3543C27.1597 14.0349 27.5 14.8613 27.5 15.8335V22.8335C27.5 23.8057 27.1597 24.6321 26.4792 25.3127C25.7986 25.9932 24.9722 26.3335 24 26.3335ZM22.8333 34.5002V30.9127C20.8111 30.6404 19.1389 29.7363 17.8167 28.2002C16.4945 26.6641 15.8333 24.8752 15.8333 22.8335H18.1667C18.1667 24.4474 18.7354 25.8231 19.8729 26.9606C21.0104 28.0981 22.3861 28.6668 24 28.6668C25.6139 28.6668 26.9896 28.0981 28.1271 26.9606C29.2646 25.8231 29.8333 24.4474 29.8333 22.8335H32.1667C32.1667 24.8752 31.5056 26.6641 30.1833 28.2002C28.8611 29.7363 27.1889 30.6404 25.1667 30.9127V34.5002H22.8333Z" fill="#FFF5E6"/>
</svg>
