<svg width="13" height="14" viewBox="0 0 13 14" fill="none" xmlns="http://www.w3.org/2000/svg">
<path d="M4.41611 7.906L8.59 10.294M8.58389 3.706L4.41611 6.094M12 2.8C12 3.79411 11.1792 4.6 10.1667 4.6C9.15414 4.6 8.33333 3.79411 8.33333 2.8C8.33333 1.80589 9.15414 1 10.1667 1C11.1792 1 12 1.80589 12 2.8ZM4.66667 7C4.66667 7.99411 3.84586 8.8 2.83333 8.8C1.82081 8.8 1 7.99411 1 7C1 6.00589 1.82081 5.2 2.83333 5.2C3.84586 5.2 4.66667 6.00589 4.66667 7ZM12 11.2C12 12.1941 11.1792 13 10.1667 13C9.15414 13 8.33333 12.1941 8.33333 11.2C8.33333 10.2059 9.15414 9.4 10.1667 9.4C11.1792 9.4 12 10.2059 12 11.2Z" stroke="#392F5A" stroke-width="1.5" stroke-linecap="round" stroke-linejoin="round"/>
</svg>
